<?xml version="1.0" encoding="utf-8"?>
<!-- Generator: Adobe Illustrator 24.0.1, SVG Export Plug-In . SVG Version: 6.00 Build 0)  -->
<svg version="1.1" id="Layer_1" xmlns="http://www.w3.org/2000/svg" xmlns:xlink="http://www.w3.org/1999/xlink" x="0px" y="0px"
	 viewBox="0 0 253.79 149.17" style="enable-background:new 0 0 253.79 149.17;" xml:space="preserve">
<style type="text/css">
	.st0{fill:#10727E;}
	.st1{fill:#147480;}
	.st2{fill:#D2B173;}
	.st3{fill:#FEFEFE;}
</style>
<g>
	<path class="st0" d="M113.42,59.37c1.16,0.51,2.16,0.94,3.16,1.38c5.16,2.26,6.98,5.79,6.92,10.53c-0.06,5-2.88,8.7-7.78,10.51
		c-2.11,0.78-4.3,1.17-6.54,1.18c-5.59,0.03-11.18,0.01-16.77,0c-0.39,0-0.78-0.08-1.17-0.15c-0.35-0.06-0.63-0.31-0.65-0.62
		c-0.03-0.33,0.25-0.58,0.59-0.66c2.11-0.49,2.56-2.16,2.57-3.94c0.1-10.78,0.14-21.56,0.17-32.34c0.01-2-0.35-3.87-2.77-4.41
		c-0.41-0.09-0.51-0.45-0.47-0.85c0.04-0.45,0.4-0.44,0.7-0.48c0.24-0.03,0.48-0.03,0.72-0.03c6.07,0.02,12.15-0.26,18.2,0.19
		c3.86,0.29,7.49,1.47,9.99,4.67c3.29,4.23,2.21,11.32-3.53,13.61C115.68,58.4,114.64,58.86,113.42,59.37z M112.55,70.95
		c0.1-1.26-0.14-2.72-0.34-4.18c-0.55-3.87-2.6-5.98-6.2-6.53c-1.41-0.22-1.71,0.05-1.72,1.47c-0.02,3.23-0.07,6.46-0.04,9.69
		c0.02,2.63-0.04,5.26,0.3,7.88c0.2,1.52,1.15,2.3,2.69,2.3c1.9-0.01,3.33-1.17,4.13-3.38C112.19,75.93,112.56,73.58,112.55,70.95z
		 M104.32,54.83c0,0.96,0.02,1.92-0.01,2.87c-0.02,0.82,0.27,1.13,1.14,1.03c2.87-0.34,4.84-1.79,5.61-4.6
		c1.09-3.96,0.73-7.8-1.16-11.47c-0.78-1.51-2-2.07-3.55-1.69c-1.11,0.27-1.81,1.33-1.82,2.89
		C104.51,47.51,104.57,51.17,104.32,54.83z"/>
	<path class="st0" d="M214.96,58.63c0-3.96-0.02-9.67,0.01-15.38c0.01-1.8-0.16-3.45-2.09-4.28c-0.36-0.16-0.47-0.52-0.41-0.92
		c0.08-0.55,0.52-0.4,0.85-0.41c4.31-0.08,8.63-0.32,12.93,0.12c2.8,0.29,5.02,1.71,6.66,3.98c2.23,3.08,3.34,6.59,3.8,10.32
		c0.64,5.17,0.61,10.36,0.19,15.53c-0.34,4.17-1.33,8.19-3.88,11.63c-2.03,2.74-4.79,4.04-8.2,4.13c-3.64,0.1-7.27,0.04-10.9-0.01
		c-0.57-0.01-1.3,0.08-1.5-0.46c-0.22-0.59,0.44-0.9,0.92-1.2c1.09-0.69,1.39-1.76,1.43-2.98C215,72.6,214.83,66.49,214.96,58.63z
		 M222.94,59.36c-0.03,0-0.06,0-0.1,0c0,5.23,0,10.46,0,15.68c0,1.76,0.17,3.5,0.4,5.23c0.1,0.8,0.51,1.41,1.26,1.55
		c0.74,0.14,1.43-0.22,1.83-0.89c0.64-1.06,1.26-2.15,1.46-3.38c0.59-3.49,0.97-7.02,1.19-10.55c0.43-6.86,0.29-13.71-0.37-20.56
		c-0.21-2.21-0.78-4.31-1.79-6.27c-0.71-1.36-1.82-1.49-2.88-0.44c-1.02,1.02-0.99,2.3-1,3.57
		C222.93,48.66,222.94,54.01,222.94,59.36z"/>
	<path class="st0" d="M45.12,66.07c0.35-0.53,0.25-1.06,0.25-1.57c0.01-6.39,0.01-12.78,0.02-19.17c0-2.69-0.54-4.47-3.49-4.75
		c-0.53-0.05-0.63-0.46-0.67-0.85c-0.04-0.48,0.37-0.61,0.73-0.61c2.92-0.01,5.83-0.01,8.75,0.04c0.47,0.01,1.03,0.26,1.07,0.79
		c0.04,0.55-0.52,0.56-0.95,0.65c-2.38,0.51-3.24,1.55-3.25,4.11c-0.02,12.14-0.02,24.28-0.03,36.43c0,0.77,0.31,1.77-0.62,2.14
		c-1.1,0.44-2.28,0.4-3.28-0.42c-0.54-0.43-0.92-0.99-1.25-1.59C36.77,71.18,31.16,61.09,25.54,51c-0.3-0.53-0.53-1.13-1.1-1.51
		c-0.34,0.41-0.19,0.82-0.2,1.19c-0.02,8.79-0.03,17.57-0.05,26.36c0,0.24,0,0.48,0.01,0.72c0.09,2.31,0.85,3.26,3.07,3.74
		c0.54,0.12,1.23,0.02,1.14,0.86c-0.09,0.92-0.86,0.5-1.31,0.51c-2.88,0.04-5.75,0.03-8.63,0.01c-0.41,0-1,0.28-1.09-0.53
		c-0.09-0.78,0.5-0.7,0.92-0.78c3-0.55,3.65-1.39,3.67-4.52c0.05-10.22,0.14-20.45,0.21-30.67c0-0.52,0.01-1.04-0.02-1.56
		c-0.16-2.67-0.84-3.51-3.4-4.17c-0.5-0.13-1.16-0.13-1.07-0.85c0.09-0.73,0.75-0.71,1.32-0.71c3.2,0,6.39,0.02,9.59-0.02
		c1.1-0.01,1.64,0.63,2.1,1.48c2.84,5.17,5.68,10.34,8.53,15.5c1.66,3,3.32,5.99,4.99,8.98C44.42,65.41,44.6,65.82,45.12,66.07z"/>
	<path class="st0" d="M53.5,83c0.22-0.65,0.36-1.21,0.9-1.37c2.14-0.62,2.93-2.31,3.39-4.24c1.47-6.19,2.91-12.38,4.36-18.58
		c1.28-5.46,2.58-10.91,3.82-16.37c0.24-1.05,0.73-1.67,1.77-2c1.71-0.54,3.4-1.13,5.06-1.79c0.76-0.3,1-0.15,1.23,0.62
		c2.83,9.49,5.69,18.98,8.54,28.46c1.02,3.39,2.06,6.77,3.05,10.17c0.49,1.66,1.35,2.96,3.01,3.62c0.18,0.07,0.37,0.18,0.49,0.32
		c0.22,0.27,0.54,0.59,0.43,0.93C89.45,83.15,89.01,83,88.71,83c-5.35,0.01-10.7,0.01-16.05,0.01c-0.2,0-0.41,0-0.59-0.06
		c-0.41-0.14-0.95-0.27-0.92-0.78c0.03-0.49,0.58-0.45,0.96-0.53c0.23-0.05,0.48-0.05,0.71-0.09c1.8-0.3,2.43-1.18,1.94-2.93
		c-1-3.56-2.06-7.11-3.1-10.66c-0.21-0.71-0.67-0.99-1.43-0.98c-2.28,0.04-4.55,0.04-6.83,0.04c-0.83,0-1.32,0.29-1.52,1.17
		c-0.82,3.64-1.69,7.27-2.55,10.91c-0.24,1,0.14,1.63,1.12,1.89c0.84,0.22,1.7,0.41,2.53,0.65c0.38,0.11,0.86,0.25,0.82,0.73
		c-0.05,0.52-0.5,0.65-0.98,0.65C59.77,83,56.7,83,53.5,83z M66.48,50.5c-0.09,0.01-0.18,0.02-0.27,0.03
		c-0.06,0.14-0.14,0.27-0.18,0.41c-1.11,4.59-2.21,9.19-3.33,13.78c-0.18,0.73,0.18,0.79,0.75,0.79c2.11-0.02,4.23-0.05,6.34,0.01
		c0.93,0.03,1.17-0.16,0.86-1.11c-0.67-2.04-1.22-4.11-1.83-6.17C68.05,55.65,67.26,53.07,66.48,50.5z"/>
	<path class="st0" d="M165.51,83.34c-3.55,0-7.11,0-10.66,0.01c-0.41,0-0.81,0.11-0.84-0.51c-0.03-0.52,0.14-0.79,0.66-0.95
		c2.54-0.82,2.95-1.35,2.97-4.01c0.08-11.38,0.14-22.76,0.19-34.14c0.01-2.78-0.67-3.73-3.19-4.61c-0.41-0.14-0.85-0.38-0.77-0.78
		c0.1-0.51,0.62-0.64,1.14-0.64c3.39-0.01,6.79-0.04,10.18-0.05c1.24,0,2.48,0.01,3.71,0.05c0.41,0.01,0.89-0.09,0.91,0.62
		c0.02,0.6-0.27,0.71-0.75,0.83c-2.58,0.64-3.3,1.56-3.31,4.16c-0.05,11.18-0.11,22.36-0.16,33.54c0,0.48-0.01,0.96,0.06,1.43
		c0.48,3.52,3.02,4.75,6.14,2.97c2.64-1.51,4.02-4.02,5.22-6.65c0.45-0.98,0.82-1.99,1.23-2.98c0.17-0.4,0.42-0.69,0.9-0.56
		c0.54,0.15,0.32,0.6,0.27,0.89c-0.61,3.44-1.26,6.88-1.9,10.32c-0.15,0.79-0.62,1.09-1.45,1.08
		C172.54,83.31,169.03,83.33,165.51,83.34z"/>
	<path class="st1" d="M109.26,102.14c1.05-1.15,1.96-2.14,2.85-3.14c0.6-0.67,1.31-0.96,2.23-0.9c1.07,0.07,2.16,0.02,3.23,0.02
		c1.3,0,2.09,0.73,2.14,2.04c0.04,1,0.04,2,0,2.99c-0.02,0.56,0.13,0.84,0.73,0.76c0.08-0.01,0.16,0,0.24,0c2,0.01,2,0.01,2.14-1.99
		c0.13-1.78,1.48-3.1,3.37-3.28c2.27-0.22,4.11,0.84,4.54,2.61c0.07,0.27,0.08,0.55,0.13,0.83c0.12,0.57-0.28,1.46,0.22,1.67
		c0.68,0.29,1.55,0.15,2.34,0.15c0.73-0.01,0.5-0.6,0.5-0.98c0.02-3.04,0.04-6.07-0.01-9.11c-0.02-0.97,0.26-1.34,1.28-1.33
		c0.98,0.01,1.33,0.29,1.31,1.31c-0.06,3.35-0.02,6.71-0.02,10.06c0,1.84-0.76,2.58-2.64,2.59c-0.76,0-1.52,0.03-2.28-0.01
		c-0.9-0.04-1.66,0.16-2.47,0.64c-1.55,0.92-3.23,0.85-4.76-0.1c-0.62-0.38-1.19-0.54-1.89-0.54c-4.47,0.01-8.95-0.03-13.42,0.04
		c-1.11,0.02-1.61-0.36-1.75-1.41c-0.05-0.39-0.17-0.78-0.26-1.16c-0.22-0.93-0.25-2.51-0.71-2.65c-1.24-0.37-2.67-0.16-4.02-0.09
		c-0.52,0.02-1.01,0.37-1.2,0.88c-0.19,0.48-0.51,1.16,0.53,1.12c1.22-0.04,2.6-0.15,2.97,1.35c0.41,1.66,0.02,3.27-1.31,4.49
		c-1.98,1.83-8.09,1.8-10.03-0.04c-1.01-0.96-1.46-2.16-1.45-3.55c0.01-0.52,0.06-1.05-0.01-1.56c-0.17-1.19,0.33-1.52,1.47-1.47
		c0.85,0.04,1.13,0.32,1.06,1.13c-0.06,0.67-0.03,1.36,0,2.04c0.06,1.32,0.78,2.09,2.09,2.16c1.24,0.06,2.48,0.02,3.71,0.01
		c0.53-0.01,1.03-0.19,1.42-0.55c0.35-0.32,0.77-0.73,0.61-1.22c-0.17-0.54-0.75-0.26-1.14-0.26c-2.31-0.04-2.62-0.34-2.56-2.66
		c0.07-2.92,1.54-4.37,4.48-4.4c1.48-0.02,2.96,0.04,4.43-0.02c0.86-0.03,1.23,0.29,1.34,1.12
		C108.81,100.44,109.03,101.17,109.26,102.14z M110.87,103.71c0.19,0.13,0.22,0.17,0.25,0.17c1.28,0.01,2.55,0.02,3.83,0.02
		c2.33,0,2.33,0,2.27-2.35c-0.01-0.33,0.15-0.73-0.25-0.97c-0.45-0.26-2.92,0.03-3.3,0.4C112.74,101.87,111.83,102.76,110.87,103.71
		z M128.35,103.19c0-1.67-0.3-2.1-1.5-2.12c-1.18-0.02-1.6,0.56-1.6,2.2c0,1.5,0.32,1.87,1.61,1.85
		C128.13,105.11,128.35,104.82,128.35,103.19z"/>
	<path class="st1" d="M195.06,38.29c3.39,0,6.78,0.03,10.17-0.02c0.92-0.02,1.15,0.26,1.12,1.14c-0.07,1.99-0.05,3.99-0.01,5.98
		c0.01,0.7-0.15,0.97-0.92,0.96c-6.94-0.03-13.88-0.03-20.81,0c-0.75,0-0.95-0.23-0.93-0.95c0.04-2.03,0.06-4.07-0.01-6.1
		c-0.03-0.89,0.31-1.04,1.1-1.03C188.2,38.31,191.63,38.29,195.06,38.29z"/>
	<path class="st0" d="M195.1,83.98c-3.43,0-6.86-0.03-10.29,0.02c-0.86,0.01-1.09-0.26-1.05-1.08c0.09-1.87,0.14-3.75,0.12-5.62
		c-0.01-0.85,0.4-1.15,1.12-1.22c0.4-0.04,0.8-0.03,1.2-0.03c6.14-0.01,12.29-0.02,18.43-0.03c1.51,0,1.68,0.17,1.68,1.62
		c0,1.76-0.07,3.51,0.01,5.27c0.04,0.95-0.31,1.11-1.16,1.09C201.8,83.96,198.45,83.98,195.1,83.98z"/>
	<path class="st0" d="M194.88,57.15c3.27,0,6.55,0,9.82,0c1.44,0,1.6,0.18,1.6,1.57c-0.01,1.72-0.03,3.43,0.01,5.15
		c0.02,0.87-0.33,1.23-1.19,1.23c-6.63-0.02-13.26-0.03-19.89-0.03c-0.9,0-1.38-0.34-1.37-1.35c0.02-1.84-0.02-3.67-0.11-5.51
		c-0.04-0.83,0.22-1.09,1.07-1.07C188.17,57.18,191.53,57.15,194.88,57.15C194.88,57.15,194.88,57.15,194.88,57.15z"/>
	<path class="st2" d="M102.23,14.78c1.62-0.54,3.23-0.64,4.88-0.43c5.82,0.72,10.13,4.04,13.92,8.18
		c4.63,5.07,9.17,10.21,13.74,15.33c2.13,2.38,4.23,4.79,6.51,7.02c3.06,2.99,6.61,4.96,10.94,5.39c0.77,0.08,1.52,0.35,2.44,0.57
		c-3.25,1.02-7.61,0.68-11.11-1.09c-3.92-1.98-7-5.02-9.88-8.23c-5.24-5.85-10.37-11.81-15.59-17.69c-1.85-2.09-3.91-3.97-6.2-5.61
		c-2.67-1.91-5.85-2.21-8.87-3.01C102.77,15.14,102.45,15.23,102.23,14.78z"/>
	<path class="st2" d="M149.09,54.47c-4.61,0.9-8.79,0.24-12.67-2.11c-3.77-2.29-6.74-5.46-9.63-8.73c-3.97-4.48-7.89-9-11.84-13.49
		c-1.42-1.62-2.91-3.18-4.35-4.78c-3.4-3.77-7.63-5.93-12.65-6.59c-0.31-0.04-0.62-0.14-0.93-0.23c-0.1-0.03-0.18-0.12-0.39-0.26
		c0.86-0.36,1.66-0.41,2.46-0.46c5.19-0.31,9.5,1.67,13.18,5.16c3.48,3.3,6.5,7.03,9.76,10.54c3.21,3.45,6.43,6.88,9.62,10.35
		c2.08,2.26,4.15,4.54,6.49,6.55c2.47,2.12,5.46,3.05,8.66,3.38C147.54,53.87,148.33,53.79,149.09,54.47z"/>
	<path class="st1" d="M56.85,106.43c-3.59,0-7.19-0.04-10.78,0.02c-1.07,0.02-1.48-0.24-1.46-1.39c0.07-3.79,0.06-7.59,0-11.38
		c-0.02-1,0.37-1.21,1.26-1.21c0.86,0,1.3,0.13,1.28,1.17c-0.07,3.03,0.02,6.07-0.05,9.1c-0.02,1,0.31,1.19,1.22,1.16
		c1.83-0.07,3.67-0.06,5.51,0.01c0.92,0.03,1.02-0.27,0.66-1.01c-0.28-0.57-0.45-1.2-0.76-1.75c-0.77-1.41-1.42-1.69-2.93-1.18
		c-0.54,0.18-0.74,0.06-0.87-0.4c-0.12-0.44-0.68-0.81-0.03-1.35c1.82-1.5,4.05-1.21,5.34,0.78c0.72,1.11,1.17,2.36,1.66,3.58
		c0.39,0.97,0.95,1.36,2.06,1.33c2.41-0.08,2.42,0,2.42-2.41c0-0.68,0.07-1.37-0.02-2.03c-0.15-1.15,0.32-1.43,1.41-1.4
		c0.93,0.02,1.16,0.35,1.12,1.2c-0.06,1.19,0.04,2.4-0.03,3.59c-0.05,0.88,0.29,1.12,1.1,1.04c0.63-0.06,1.28-0.08,1.91,0
		c1,0.13,1.18-0.32,1.16-1.22c-0.05-2.95,0.01-5.91-0.04-8.86c-0.01-0.92,0.14-1.39,1.22-1.37c1,0.01,1.29,0.32,1.28,1.32
		c-0.06,3.43-0.02,6.87-0.02,10.3c0,1.54-0.78,2.34-2.36,2.35C64.35,106.44,60.6,106.43,56.85,106.43z"/>
	<path class="st1" d="M227.3,106.43c-2.16,0-4.31,0.02-6.46-0.01c-0.76-0.01-1.16,0.03-1.25,1.03c-0.2,2.32-2.1,3.62-4.41,3.21
		c-0.62-0.11-1.24-0.27-1.84-0.47c-1.23-0.42-1.38-0.98-0.63-2.07c0.17-0.25,0.33-0.29,0.59-0.19c0.33,0.13,0.67,0.26,1.01,0.34
		c2.08,0.48,2.92-0.19,2.92-2.33c0-2.23,0.06-4.47-0.02-6.7c-0.04-1.04,0.4-1.14,1.26-1.16c0.95-0.02,1.28,0.26,1.22,1.22
		c-0.08,1.15,0.03,2.32-0.04,3.47c-0.05,0.86,0.15,1.32,1.1,1.12c0.08-0.02,0.16-0.02,0.24-0.02c2.79-0.03,2.79-0.03,2.79-2.87
		c0-0.52,0.06-1.05-0.01-1.55c-0.17-1.18,0.38-1.4,1.43-1.37c0.91,0.02,1.18,0.32,1.14,1.2c-0.06,1.31,0.01,2.63-0.02,3.95
		c-0.01,0.53,0.17,0.66,0.68,0.69c1.82,0.1,1.81,0.12,1.82-1.72c0-1.08,0.02-2.16-0.01-3.23c-0.03-1.16,0.81-0.8,1.43-0.85
		c0.66-0.06,1.19-0.03,1.17,0.88c-0.04,1.32,0.07,2.64-0.03,3.95c-0.09,1.13,0.59,0.98,1.26,0.96c0.63-0.02,1.38,0.26,1.28-0.92
		c-0.11-1.27,0.03-2.56-0.04-3.83c-0.06-1.03,0.5-1.07,1.27-1.05c0.71,0.02,1.35-0.08,1.3,1c-0.07,1.67,0,3.35-0.03,5.03
		c-0.02,1.5-0.79,2.28-2.3,2.3C231.85,106.45,229.58,106.43,227.3,106.43z"/>
	<path class="st1" d="M210.62,97.89c2.81,0.75,3.58,2.6,3.52,4.98c-0.02,0.88-0.02,1.76,0,2.63c0.02,0.67-0.29,0.93-0.93,0.93
		c-5.27-0.01-10.54,0.03-15.81-0.03c-1.98-0.02-2.68-1.16-2.02-3.06c0.43-1.24,0.95-2.45,1.45-3.66c0.46-1.12,1.29-1.64,2.53-1.59
		c1.12,0.05,2.24,0.06,3.35,0c0.76-0.04,0.97,0.25,0.95,0.97c-0.04,1.32,0.02,2.64-0.02,3.95c-0.02,0.67,0.19,0.91,0.88,0.9
		c2.07-0.04,4.15-0.04,6.23,0c0.69,0.01,0.88-0.22,0.88-0.89c0.03-2.11-1.06-3-3.34-2.67c-0.36,0.05-0.87,0.44-1-0.16
		c-0.15-0.71-0.94-1.44-0.23-2.19c1.68-1.76,3.44-3.45,5.13-5.2c0.4-0.41,0.63-0.32,0.94,0.04c0.21,0.24,0.42,0.49,0.68,0.68
		c0.61,0.45,0.55,0.8,0,1.29C212.77,95.74,211.8,96.74,210.62,97.89z M199.58,103.9c0.2,0,0.4,0.03,0.59-0.01
		c0.37-0.08,1.03,0.29,1.01-0.43c-0.02-0.96,0.28-1.95-0.2-2.88c-0.03-0.06-0.23-0.02-0.34-0.05c-1.43-0.35-1.79,0.57-2.17,1.67
		C197.89,103.92,197.84,103.9,199.58,103.9z"/>
	<path class="st1" d="M174.88,106.43c-2.04,0-4.07-0.02-6.11,0.01c-0.76,0.01-1.07-0.25-1.06-1.04c0.03-3.95,0.04-7.91-0.01-11.86
		c-0.01-1.04,0.54-1.03,1.28-1.06c0.82-0.03,1.23,0.15,1.21,1.11c-0.06,3.07,0,6.15-0.04,9.23c-0.01,0.81,0.18,1.19,1.05,1.09
		c0.98-0.12,2.26,0.42,2.89-0.2c0.64-0.62,0.14-1.9,0.21-2.88c0.03-0.44,0.05-0.88,0-1.32c-0.13-1.06,0.19-1.5,1.37-1.44
		c0.88,0.05,1.22,0.25,1.17,1.16c-0.06,1.27,0.03,2.56-0.03,3.83c-0.03,0.71,0.22,0.84,0.87,0.86c3.19,0.06,3.19,0.08,3.18-3.1
		c0-2.4,0.04-4.79-0.02-7.19c-0.02-0.95,0.4-1.16,1.22-1.14c0.77,0.02,1.4-0.01,1.39,1.09c-0.05,3.47,0,6.95-0.03,10.42
		c-0.01,1.64-0.81,2.41-2.44,2.43C178.95,106.45,176.91,106.43,174.88,106.43z"/>
	<path class="st1" d="M25.89,106.43c-1.72,0-3.43,0.03-5.15-0.01c-2.19-0.06-2.94-1.19-2.17-3.24c0.43-1.15,0.91-2.29,1.39-3.43
		c0.48-1.15,1.32-1.73,2.61-1.66c1.12,0.06,2.24,0.05,3.35,0c0.74-0.04,1,0.24,0.99,0.95c-0.03,1.32,0.02,2.64-0.02,3.95
		c-0.02,0.63,0.11,0.96,0.84,0.91c1.03-0.08,2.38,0.32,3.01-0.2c0.65-0.54,0.14-1.94,0.2-2.96c0.02-0.44,0.05-0.88-0.01-1.32
		c-0.15-1.06,0.27-1.37,1.33-1.36c0.98,0.01,1.24,0.31,1.2,1.24c-0.07,1.55-0.01,3.11-0.02,4.67c-0.01,1.71-0.75,2.43-2.51,2.45
		C29.24,106.44,27.56,106.43,25.89,106.43z M24.32,102.35c0-0.37,0.02-0.65-0.01-0.93c-0.04-0.35,0.19-0.92-0.46-0.86
		c-0.58,0.05-1.33-0.4-1.7,0.38c-0.37,0.78-0.65,1.61-0.96,2.42c-0.06,0.17-0.16,0.47,0.1,0.48c0.95,0.04,1.94,0.17,2.82-0.06
		C24.61,103.65,24.2,102.78,24.32,102.35z"/>
	<path class="st2" d="M26.5,125.41c0,1.44-0.03,2.87,0.01,4.31c0.03,0.93-0.52,1.01-1.23,1.01c-0.7,0-1.28-0.05-1.23-1
		c0.05-0.79-0.03-1.6,0.02-2.39c0.06-0.76-0.26-0.92-0.97-0.94c-3.14-0.07-3.16-0.09-3.16,3.03c0,0.87-0.18,1.34-1.18,1.31
		c-0.96-0.02-1.46-0.24-1.43-1.36c0.07-2.55,0.01-5.1,0.03-7.66c0.02-2.65,1.87-4.44,4.58-4.43c2.8,0,4.54,1.68,4.55,4.41
		C26.51,122.94,26.5,124.18,26.5,125.41z M22.01,123.98c2.05,0,1.98,0,2.07-1.53c0.14-2.22-0.87-2.67-2.19-2.65
		c-1.26,0.01-2.08,0.43-1.97,2.58C20.01,124.29,19.79,123.95,22.01,123.98z"/>
	<path class="st2" d="M66.72,125.35c0-1.24,0.05-2.48-0.01-3.71c-0.15-3.07,2.39-4.6,5.06-4.3c2.63,0.29,4.03,1.96,4.04,4.61
		c0.01,2.47-0.03,4.95,0.02,7.42c0.02,1.07-0.43,1.37-1.43,1.38c-1.02,0.01-1.17-0.49-1.17-1.34c0-3.06-0.02-3.04-3.07-3.01
		c-0.75,0.01-1.11,0.17-1.03,0.99c0.06,0.67-0.04,1.36,0.03,2.03c0.1,1-0.29,1.32-1.29,1.33c-1.02,0-1.19-0.47-1.16-1.33
		C66.75,128.07,66.72,126.71,66.72,125.35z M71.12,123.98c2.24-0.03,2.1,0.3,2.11-1.45c0.01-2.01-0.56-2.78-2.04-2.8
		c-1.42-0.02-2.07,0.82-2.06,2.69C69.14,124.26,68.92,123.95,71.12,123.98z"/>
	<path class="st2" d="M84.93,122.55c1.19-0.44,2.05-1.19,3.19-1.18c0.57,0,1.2-0.02,1.51,0.52c0.51,0.89,1.05,0.84,1.75,0.27
		c0.24-0.2,0.56-0.3,0.85-0.43c2.24-0.99,3.71-0.08,3.75,2.37c0.03,1.84-0.03,3.67,0.03,5.51c0.03,0.95-0.41,1.13-1.23,1.13
		c-0.83,0-1.27-0.21-1.24-1.14c0.05-1.48-0.01-2.95,0.02-4.43c0.02-0.93-0.29-1.43-1.3-1.41c-1.25,0.03-1.8,0.45-1.81,1.5
		c-0.01,1.48-0.05,2.96,0.01,4.43c0.04,1.03-0.57,1.03-1.31,1.05c-0.79,0.02-1.17-0.22-1.14-1.09c0.05-1.47,0.02-2.95,0.01-4.43
		c0-0.94-0.36-1.57-1.42-1.45c-0.88,0.1-1.77,0.15-1.71,1.46c0.07,1.47-0.01,2.95,0.03,4.43c0.02,0.87-0.41,1.09-1.18,1.08
		c-0.73-0.02-1.39-0.03-1.39-1.02c0-2.47,0.01-4.95,0-7.42c0-0.75,0.4-0.96,1.07-0.92C84.18,121.41,85.18,121.06,84.93,122.55z"/>
	<path class="st2" d="M206.71,127.16c0,1.24,0.03,2.47-0.01,3.71c-0.09,2.66-1.99,4.27-4.59,3.91c-0.63-0.09-1.27-0.2-1.85-0.44
		c-0.37-0.16-1.26,0.07-0.97-0.79c0.24-0.71,0.35-1.76,1.64-1.24c0.71,0.29,1.51,0.25,2.24,0.04c0.56-0.16,1.01-0.6,0.92-1.24
		c-0.1-0.65-0.7-0.34-1.08-0.38c-0.75-0.07-1.51-0.02-2.26-0.12c-1.29-0.16-2-1.01-2.12-2.23c-0.11-1.1-0.14-2.25,0.02-3.34
		c0.42-2.87,2.69-4.27,5.62-3.54c0.61,0.15,1.19,0.44,1.78,0.69c0.48,0.21,0.7,0.57,0.68,1.13
		C206.69,124.61,206.71,125.88,206.71,127.16z M204.28,126.21c0-0.37,0-0.65,0-0.93c-0.01-0.62,0.17-1.34-0.79-1.43
		c-0.96-0.09-1.88-0.02-2.26,1.06c-0.3,0.87-0.2,1.81-0.18,2.72c0.01,0.26,0.12,0.5,0.4,0.5c0.87,0,1.83,0.19,2.58-0.13
		C204.63,127.74,204.17,126.76,204.28,126.21z"/>
	<path class="st1" d="M156.41,106.43c-1.92,0-3.83,0.01-5.75,0c-1.74-0.01-2.5-0.76-2.52-2.47c-0.02-1.64,0.04-3.27-0.02-4.91
		c-0.03-0.99,0.53-0.98,1.23-0.95c0.68,0.02,1.4-0.15,1.35,0.96c-0.06,1.31,0.02,2.63-0.03,3.95c-0.02,0.65,0.15,0.91,0.86,0.9
		c3.23-0.03,6.47-0.04,9.7,0c0.78,0.01,0.93-0.3,0.91-0.98c-0.04-1.32,0.02-2.63-0.02-3.95c-0.03-1.17,0.8-0.81,1.42-0.87
		c0.68-0.06,1.17,0.02,1.14,0.91c-0.04,1.72,0.01,3.43-0.02,5.15c-0.03,1.4-0.85,2.23-2.26,2.26
		C160.4,106.46,158.41,106.43,156.41,106.43z"/>
	<path class="st2" d="M55.71,130.72c-2.81,0.01-2.59,0.19-2.59-2.57c0-3.19,0.03-6.38-0.02-9.56c-0.02-1,0.34-1.31,1.32-1.32
		c1.02-0.01,1.34,0.35,1.28,1.33c-0.06,0.95-0.27,2.03,0.07,2.84c0.41,0.96,1.62,0.29,2.46,0.51c2.54,0.65,3.67,2.14,3.47,4.76
		c-0.18,2.28-2,3.89-4.56,4.02C56.67,130.74,56.19,130.72,55.71,130.72z M55.64,126.19c0.35,0.68-0.68,2.05,1.14,1.98
		c1.66-0.07,2.49-0.67,2.5-2.03c0.01-1.18-0.93-1.8-2.54-1.87C55.02,124.2,55.95,125.49,55.64,126.19z"/>
	<path class="st2" d="M181.79,124.06c0,1.84-0.03,3.67,0.01,5.51c0.02,0.8-0.22,1.21-1.08,1.15c-1.23-0.09-2.46,0.1-3.7-0.15
		c-2.41-0.49-3.95-2.37-3.81-4.75c0.12-2.23,1.87-3.84,4.32-3.97c1.84-0.1,1.84-0.1,1.84-1.95c0-0.4,0-0.8,0-1.2
		c0-1.43,0.08-1.46,1.48-1.43c0.75,0.02,0.96,0.34,0.95,1.03C181.77,120.23,181.79,122.15,181.79,124.06z M179.41,126.22
		c-0.29-0.72,0.64-2.06-1.17-1.95c-1.54,0.1-2.58,0.77-2.58,1.89c0,1.18,1.06,1.92,2.58,2.01
		C180.05,128.28,179.13,126.94,179.41,126.22z"/>
	<path class="st2" d="M116.85,123.96c0,1.83-0.03,3.67,0.01,5.5c0.02,0.91-0.25,1.33-1.22,1.28c-1.5-0.08-3.03,0.16-4.49-0.36
		c-1.89-0.68-3.11-2.78-2.8-4.75c0.36-2.33,1.8-3.62,4.21-3.76c0.32-0.02,0.64-0.03,0.96,0c0.68,0.05,0.92-0.25,0.9-0.91
		c-0.03-0.92,0.02-1.83-0.02-2.75c-0.04-0.9,0.52-0.92,1.17-0.91c0.66,0.01,1.32-0.05,1.29,0.93c-0.03,0.96-0.01,1.91-0.01,2.87
		C116.85,122.04,116.85,123,116.85,123.96z M114.41,126.4c0-2.1,0-2.1-1.06-2.11c-1.67-0.02-2.51,0.6-2.53,1.84
		c-0.02,1.35,0.82,1.96,2.48,2.04C114.99,128.26,114.21,127.03,114.41,126.4z"/>
	<path class="st2" d="M228.04,124.02c0-0.72,0-1.44,0-2.15c0-3.3,2.38-5.18,5.64-4.45c2.17,0.49,3.4,1.73,3.48,3.53
		c0.03,0.62-0.05,1.19-0.85,1.11c-0.6-0.06-1.48,0.48-1.63-0.78c-0.12-1.03-1.21-1.66-2.33-1.52c-1.32,0.16-1.86,0.67-1.87,1.86
		c-0.02,1.6,0.01,3.19-0.01,4.79c-0.02,1.09,0.55,1.6,1.57,1.71c1.53,0.17,2.47-0.23,2.63-1.34c0.19-1.38,1.18-0.8,1.83-0.81
		c0.83-0.01,0.7,0.74,0.64,1.27c-0.26,2.16-2.63,3.79-4.97,3.44c-3.11-0.45-4.12-1.63-4.13-4.75
		C228.04,125.29,228.04,124.65,228.04,124.02z"/>
	<path class="st2" d="M171.44,127.47c0,0.72-0.03,1.44,0.01,2.15c0.05,0.84-0.34,1.13-1.14,1.11c-1.43-0.04-2.87,0.01-4.3-0.02
		c-1.38-0.03-2.14-0.6-2.39-1.72c-0.31-1.39,0.21-2.72,1.29-3.31c1-0.55,2.11-0.66,3.2-0.86c0.25-0.04,0.62,0.1,0.68-0.3
		c0.05-0.37-0.25-0.56-0.53-0.72c-1.01-0.54-2.02-0.2-3.02,0.06c-1.28,0.33-1.38,0.25-1.52-1.04c-0.04-0.41,0.07-0.58,0.42-0.71
		c1.35-0.52,2.72-0.87,4.19-0.73c1.95,0.19,2.95,1.34,3.1,3.69C171.48,125.88,171.44,126.68,171.44,127.47
		C171.44,127.47,171.44,127.47,171.44,127.47z M167.45,128.19c0.52-0.21,1.39,0.4,1.43-0.75c0.02-0.63-0.21-0.86-0.83-0.79
		c-0.77,0.09-1.69,0.17-1.78,1.06C166.19,128.53,167.07,127.95,167.45,128.19z"/>
	<path class="st2" d="M51.12,127.13c0,0.76-0.05,1.52,0.01,2.27c0.08,0.97-0.24,1.39-1.27,1.34c-1.35-0.07-2.71,0-4.07-0.02
		c-1.36-0.02-2.19-0.58-2.48-1.64c-0.37-1.35,0.13-2.67,1.24-3.33c0.99-0.59,2.11-0.68,3.2-0.9c0.28-0.05,0.73,0.08,0.75-0.38
		c0.02-0.41-0.33-0.58-0.68-0.73c-1.09-0.45-2.12-0.05-3.15,0.21c-0.44,0.11-0.91,0.45-1.04-0.38c-0.1-0.61-0.51-1.19,0.46-1.53
		c1.3-0.46,2.59-0.76,3.97-0.63c1.75,0.16,2.95,1.34,3.04,3.1c0.04,0.88,0.01,1.76,0.01,2.63
		C51.12,127.13,51.12,127.13,51.12,127.13z M47.14,128.19c0.53-0.2,1.41,0.38,1.43-0.76c0.01-0.52-0.1-0.84-0.72-0.79
		c-0.81,0.07-1.78,0.13-1.89,1.07C45.87,128.55,46.77,127.94,47.14,128.19z"/>
	<path class="st2" d="M35.9,122.21c0.89-0.2,1.63-0.82,2.6-0.84c1.6-0.03,2.51,0.58,2.83,2.13c0.43,2.13,0.17,4.3,0.19,6.44
		c0.01,0.98-0.84,0.74-1.44,0.78c-0.74,0.04-1.12-0.29-1.11-1.06c0.01-1.52-0.05-3.04,0.02-4.55c0.05-1.12-0.55-1.52-1.51-1.54
		c-1.2-0.03-1.73,0.48-1.73,1.54c0,1.48-0.03,2.95,0.01,4.43c0.02,1-0.52,1.18-1.37,1.19c-0.84,0.01-1.24-0.21-1.22-1.15
		c0.05-2.43,0.02-4.87,0.01-7.31c0-0.48,0.05-1.01,0.65-0.88c0.65,0.13,1.67-0.69,1.91,0.65c-0.03,0.06-0.1,0.14-0.09,0.17
		C35.73,122.35,35.82,122.28,35.9,122.21z"/>
	<path class="st2" d="M121.59,127.87c1.27,1.12,2.45,0.57,3.63,0.31c0.39-0.09,0.97-0.75,1.21,0.23c0.17,0.69,0.53,1.37-0.59,1.66
		c-1.42,0.37-2.81,0.84-4.31,0.48c-1.49-0.35-2.41-1.27-2.5-2.78c-0.08-1.39-0.08-2.79-0.02-4.18c0.05-1.25,0.96-2.13,2.24-2.19
		c1.15-0.05,2.31-0.06,3.46,0.01c1.74,0.11,2.49,1.43,1.75,3.02c-0.76,1.64-2.24,2.42-3.79,3.1
		C122.38,127.64,122.08,127.71,121.59,127.87z M122.87,123.77c-0.4,0.26-1.17-0.33-1.39,0.4c-0.17,0.57-0.34,1.39,0.12,1.8
		c0.35,0.32,0.94-0.19,1.36-0.48c0.16-0.11,0.36-0.2,0.47-0.36c0.26-0.35,0.73-0.78,0.66-1.07
		C123.96,123.55,123.34,123.94,122.87,123.77z"/>
	<path class="st2" d="M128.57,125.56c0-0.52-0.02-1.04,0-1.56c0.06-1.63,1.01-2.59,2.62-2.63c0.96-0.02,1.92-0.03,2.87,0.01
		c2.11,0.09,2.93,1.67,1.8,3.47c-0.87,1.38-2.23,2.12-3.69,2.72c-0.26,0.1-0.75-0.01-0.67,0.47c0.06,0.36,0.49,0.43,0.77,0.45
		c0.95,0.08,1.89-0.01,2.79-0.38c0.32-0.13,0.81-0.54,0.92,0.16c0.08,0.51,0.74,1.18-0.1,1.57c-1.74,0.81-3.56,1.19-5.43,0.48
		c-1.44-0.55-1.75-1.86-1.88-3.21C128.53,126.6,128.57,126.08,128.57,125.56z M131.08,125.18c0.09,0.16-0.4,0.76,0.31,0.86
		c0.67,0.09,2.51-1.39,2.34-1.92c-0.19-0.6-0.8-0.25-1.21-0.28C131.72,123.78,130.7,123.56,131.08,125.18z"/>
	<path class="st2" d="M106.47,125.99c0,1.24,0,2.47,0,3.71c0,0.46-0.03,1.01-0.61,0.97c-0.64-0.04-1.54,0.53-1.87-0.4
		c-0.25-0.7-0.55-0.4-0.87-0.23c-0.75,0.4-1.57,0.64-2.4,0.65c-1.54,0.02-2.47-1.04-2.57-3c-0.09-1.79-0.01-3.59-0.04-5.39
		c-0.01-1.08,0.75-0.89,1.41-0.94c0.78-0.06,1.07,0.24,1.05,1.03c-0.04,1.44-0.01,2.87-0.01,4.31c0,0.72,0.16,1.33,0.9,1.67
		c0.79,0.37,1.48,0.02,2.16-0.28c0.42-0.18,0.32-0.6,0.32-0.95c0.01-1.48,0.04-2.95-0.01-4.43c-0.03-0.92,0.17-1.37,1.24-1.37
		c1.12-0.01,1.37,0.45,1.31,1.43C106.42,123.84,106.47,124.92,106.47,125.99z"/>
	<path class="st2" d="M188.49,125.91c0-1.2,0-2.39,0-3.59c0-0.46,0.01-0.99,0.62-0.92c0.6,0.07,1.45-0.5,1.76,0.41
		c0.18,0.53,0.33,0.54,0.72,0.31c0.17-0.1,0.35-0.18,0.53-0.27c2.65-1.25,4.53-0.2,4.71,2.72c0.11,1.71,0.01,3.43,0.03,5.14
		c0.01,1.03-0.69,0.98-1.39,1.01c-0.75,0.03-1.22-0.14-1.19-1.05c0.05-1.51-0.01-3.03,0.02-4.55c0.03-1.09-0.59-1.53-1.54-1.56
		c-1.3-0.04-1.84,0.46-1.85,1.59c-0.01,1.52-0.04,3.03,0.01,4.55c0.03,0.94-0.49,1.02-1.21,1.02c-0.7-0.01-1.27-0.04-1.23-1
		C188.53,128.46,188.49,127.18,188.49,125.91z"/>
	<path class="st2" d="M151.34,125.11c0,1.51-0.05,3.03,0.02,4.54c0.04,1-0.5,1.08-1.27,1.08c-0.76,0-1.19-0.15-1.17-1.05
		c0.04-2.95-0.01-5.9,0.03-8.85c0.01-0.86-0.19-1.28-1.12-1.15c-0.35,0.05-0.72,0.01-1.07,0.01c-1.36-0.01-1.57-0.28-1.44-1.64
		c0.06-0.56,0.3-0.76,0.84-0.76c2.63,0.01,5.26,0.01,7.89,0c0.89-0.01,0.9,0.56,0.91,1.2c0.01,0.67-0.08,1.21-0.93,1.2
		c-0.12,0-0.24,0-0.36,0c-2.32,0.04-2.32,0.04-2.32,2.31C151.34,123.04,151.34,124.07,151.34,125.11z"/>
	<path class="st2" d="M211.8,124.03c0-1.87,0.04-3.75-0.02-5.62c-0.03-0.93,0.39-1.15,1.23-1.13c0.8,0.02,1.39,0.06,1.37,1.13
		c-0.05,2.87,0.01,5.74-0.04,8.61c-0.02,0.89,0.23,1.25,1.14,1.14c0.47-0.06,0.96-0.01,1.43-0.01c1.51,0,1.48,0,1.47,1.53
		c0,0.74-0.18,1.09-1.01,1.05c-1.47-0.06-2.95-0.05-4.42,0c-0.9,0.03-1.19-0.33-1.16-1.2C211.83,127.7,211.8,125.87,211.8,124.03z"
		/>
	<path class="st2" d="M219.91,123.97c0-1.76,0.04-3.52-0.02-5.27c-0.03-0.98,0.19-1.44,1.31-1.44c1.17,0,1.29,0.59,1.28,1.5
		c-0.02,2.76,0.03,5.51-0.03,8.27c-0.02,0.91,0.27,1.24,1.16,1.13c0.47-0.05,0.96-0.01,1.44-0.01c1.42,0,1.92,0.72,1.48,2.1
		c-0.17,0.54-0.58,0.46-0.96,0.47c-1.52,0.01-3.04-0.02-4.55,0.01c-0.83,0.02-1.14-0.31-1.13-1.13
		C219.93,127.72,219.91,125.85,219.91,123.97z"/>
	<path class="st1" d="M73.51,99.34c0-1.99,0.04-3.99-0.02-5.98c-0.03-1.18,0.74-0.99,1.44-1.01c0.74-0.03,1.31,0,1.3,1.04
		c-0.04,3.99-0.05,7.98,0,11.97c0.01,1.09-0.59,1.1-1.38,1.11c-0.8,0-1.4-0.06-1.36-1.13C73.55,103.33,73.51,101.34,73.51,99.34z"/>
	<path class="st1" d="M142.23,99.45c0,1.95-0.05,3.91,0.02,5.85c0.04,1.18-0.64,1.14-1.46,1.15c-0.82,0-1.47,0.02-1.45-1.15
		c0.05-3.94,0.06-7.89,0-11.83c-0.02-1.21,0.67-1.12,1.46-1.12c0.79,0,1.5-0.08,1.45,1.13C142.17,95.46,142.23,97.46,142.23,99.45z"
		/>
	<path class="st0" d="M34.21,109.17c0.24-1.04,0.63-1.42,1.85-0.97c2.08,0.76,3.05-0.06,3.06-2.32c0.01-2.27,0.04-4.54-0.02-6.81
		c-0.03-0.97,0.48-0.98,1.19-0.97c0.71,0.01,1.32-0.08,1.3,1c-0.06,2.55,0.02,5.1-0.02,7.65c-0.06,3.28-2.53,4.73-5.99,3.57
		C35.33,109.68,34.64,109.57,34.21,109.17z"/>
	<path class="st2" d="M31.28,124.02c0,1.83-0.05,3.67,0.02,5.5c0.04,1.05-0.42,1.3-1.36,1.26c-0.83-0.04-1.57,0.06-1.55-1.19
		c0.06-3.7,0.06-7.41,0-11.11c-0.02-1.25,0.72-1.15,1.55-1.19c0.93-0.04,1.4,0.19,1.36,1.25C31.23,120.36,31.28,122.19,31.28,124.02
		z"/>
	<path class="st1" d="M83.6,104.07c-0.5-1.03-1.15-1.9-1.1-3.05c0.05-1.46,0.78-2.28,2.24-2.4c1.02-0.08,1.96,0.2,2.89,0.6
		c0.35,0.15,0.73,0.32,0.43,0.77c-0.27,0.4-0.14,1.23-1.02,1.04c-0.68-0.15-1.56-0.59-1.98,0.14c-0.45,0.78,0.34,1.44,0.74,2.12
		c0.52,0.88,1.3,0.95,2.16,0.85c0.88-0.1,1.09,0.33,1.08,1.12c0,0.77-0.19,1.2-1.07,1.18c-1.59-0.04-3.19-0.04-4.78,0
		c-0.85,0.02-1.32-0.15-1.33-1.17c-0.01-1.05,0.51-1.21,1.34-1.13C83.28,104.15,83.36,104.12,83.6,104.07z"/>
	<path class="st0" d="M186.35,99.37c0-1.96,0.05-3.91-0.02-5.87c-0.04-1.05,0.46-1.19,1.31-1.16c0.76,0.03,1.4-0.06,1.39,1.07
		c-0.05,3.99-0.05,7.98,0,11.98c0.01,1.14-0.68,1.03-1.42,1.05c-0.79,0.02-1.29-0.1-1.27-1.09
		C186.39,103.36,186.35,101.36,186.35,99.37z"/>
	<path class="st2" d="M156.88,122.79c1.14-0.46,2.07-0.9,3.05-1.22c1.32-0.43,1.98,0.08,2.01,1.45c0.01,0.36,0,0.72,0,1.08
		c-0.01,1.17-0.98,1.77-2.09,1.29c-0.22-0.09-0.33-0.24-0.31-0.45c0.08-0.8-0.29-1.14-1.05-0.96c-0.76,0.18-1.62,0.28-1.6,1.4
		c0.03,1.36-0.04,2.72,0.02,4.07c0.04,0.91-0.24,1.3-1.21,1.29c-0.91-0.01-1.29-0.29-1.27-1.25c0.05-2.23,0.02-4.47,0.01-6.7
		c0-0.74-0.1-1.44,1.04-1.45C156.47,121.33,157.16,121.44,156.88,122.79z"/>
	<path class="st2" d="M77.74,123.96c0-1.84,0.04-3.68-0.02-5.51c-0.03-1.03,0.46-1.19,1.32-1.17c0.79,0.02,1.38,0.03,1.37,1.12
		c-0.05,3.75-0.05,7.51,0,11.26c0.01,1.09-0.59,1.09-1.38,1.11c-0.87,0.03-1.34-0.17-1.31-1.18
		C77.78,127.72,77.74,125.84,77.74,123.96z"/>
	<path class="st2" d="M140.72,125.91c0,1.24-0.03,2.48,0.01,3.71c0.03,0.92-0.43,1.14-1.27,1.12c-0.78-0.02-1.29-0.12-1.27-1.1
		c0.05-2.39,0.05-4.79,0-7.19c-0.02-0.99,0.46-1.22,1.33-1.22c0.86,0,1.25,0.31,1.22,1.2C140.69,123.59,140.72,124.75,140.72,125.91
		z"/>
	<path class="st2" d="M183.93,126.07c0-1.27,0.03-2.55-0.01-3.82c-0.04-1.05,0.68-0.86,1.29-0.88c0.65-0.03,1.16,0.01,1.15,0.91
		c-0.04,2.51-0.03,5.02,0,7.53c0.01,0.89-0.53,0.92-1.17,0.92c-0.67,0-1.3,0.03-1.27-0.95C183.96,128.54,183.93,127.3,183.93,126.07
		z"/>
	<path class="st1" d="M34.21,109.17c0.44,0.4,1.12,0.51,1.36,1.14c-0.37-0.13-0.79-0.19-1.11-0.4c-0.38-0.27-0.59-0.36-1.04-0.01
		c-0.73,0.58-1.55,0.41-2.07-0.36c-0.43-0.64-0.02-1.12,0.57-1.43c0.8-0.41,1.62-0.06,1.98,0.83c0.04,0.1,0.06,0.2,0.09,0.3
		C34.07,109.22,34.14,109.19,34.21,109.17z"/>
	<path class="st1" d="M231.78,96.73c-0.75-0.02-1.41-0.32-1.4-1.12c0.01-0.72,0.65-1.09,1.34-1.1c0.74,0,1.39,0.35,1.39,1.16
		C233.11,96.42,232.5,96.71,231.78,96.73z"/>
	<path class="st1" d="M22.18,96.27c-0.62-0.08-1.27-0.23-1.32-1.05c-0.05-0.8,0.48-1.14,1.2-1.18c0.76-0.04,1.41,0.23,1.45,1.07
		C23.54,95.89,22.92,96.17,22.18,96.27z"/>
	<path class="st2" d="M139.51,117.31c0.85-0.14,1.22,0.17,1.24,1.08c0.02,1.04-0.51,1.13-1.34,1.14c-0.82,0-1.23-0.18-1.24-1.12
		C138.17,117.38,138.67,117.19,139.51,117.31z"/>
	<path class="st1" d="M112.69,94.03c0.65,0,1.26,0.28,1.3,1.03c0.04,0.83-0.63,1.18-1.35,1.19c-0.72,0.01-1.4-0.36-1.37-1.18
		C111.29,94.33,111.9,94.03,112.69,94.03z"/>
	<path class="st1" d="M228.21,96.72c-0.53-0.01-1.11-0.36-1.1-1.09c0.02-0.8,0.67-1.14,1.41-1.12c0.7,0.02,1.32,0.41,1.31,1.13
		C229.82,96.42,229.17,96.73,228.21,96.72z"/>
	<path class="st1" d="M175.48,96.26c-0.59-0.07-1.27-0.31-1.27-1.14c0-0.74,0.58-1.06,1.3-1.08c0.78-0.02,1.4,0.31,1.4,1.1
		C176.91,95.84,176.34,96.23,175.48,96.26z"/>
	<path class="st1" d="M63.62,96.27c-0.64-0.12-1.28-0.29-1.27-1.13c0.01-0.8,0.55-1.1,1.28-1.1c0.76,0,1.39,0.3,1.37,1.15
		C64.97,95.97,64.32,96.19,63.62,96.27z"/>
	<path class="st1" d="M156.44,107.95c0.7,0.09,1.33,0.39,1.32,1.12c-0.01,0.79-0.68,1.15-1.42,1.13c-0.69-0.02-1.33-0.39-1.32-1.11
		C155.03,108.29,155.7,108,156.44,107.95z"/>
	<path class="st1" d="M25.66,94.03c0.55-0.02,1.14,0.32,1.17,1.04c0.03,0.8-0.63,1.18-1.37,1.17c-0.73-0.01-1.4-0.38-1.36-1.18
		C24.13,94.35,24.75,94.03,25.66,94.03z"/>
	<path class="st1" d="M198.98,94.03c0.81-0.01,1.41,0.36,1.44,1.04c0.03,0.79-0.66,1.16-1.38,1.16c-0.74,0-1.4-0.38-1.36-1.18
		C197.72,94.35,198.3,94,198.98,94.03z"/>
	<path class="st1" d="M54.31,107.93c0.8,0.08,1.46,0.37,1.45,1.18c-0.01,0.73-0.65,1.09-1.34,1.09c-0.73,0-1.39-0.33-1.38-1.16
		C53.05,108.28,53.69,108.04,54.31,107.93z"/>
	<path class="st1" d="M29.36,110.23c-0.79-0.1-1.46-0.37-1.44-1.19c0.02-0.73,0.63-1.07,1.34-1.08c0.75,0,1.4,0.34,1.39,1.14
		C30.63,109.84,29.97,110.11,29.36,110.23z"/>
	<path class="st1" d="M60.4,94.03c0.67,0.04,1.28,0.28,1.29,1.06c0.01,0.84-0.64,1.15-1.36,1.15c-0.68,0-1.31-0.35-1.33-1.08
		C58.97,94.33,59.63,94.06,60.4,94.03z"/>
	<path class="st1" d="M202.43,96.27c-0.8-0.08-1.47-0.31-1.44-1.18c0.02-0.8,0.64-1.04,1.34-1.05c0.71-0.01,1.28,0.26,1.3,1.08
		C203.66,95.95,203.02,96.13,202.43,96.27z"/>
	<path class="st2" d="M185.09,119.48c-0.99,0.19-1.16-0.29-1.19-1.13c-0.03-0.99,0.46-1.07,1.24-1.08c0.82-0.01,1.23,0.18,1.23,1.12
		C186.38,119.42,185.92,119.65,185.09,119.48z"/>
	<path class="st1" d="M231.45,93.18c-0.17,0.76-0.73,1.12-1.46,1.05c-0.65-0.06-1.28-0.39-1.21-1.18c0.07-0.82,0.71-1.13,1.44-1.08
		C230.89,92.01,231.41,92.37,231.45,93.18z"/>
	<path class="st1" d="M99.65,113.47c-0.54-0.02-1.16-0.24-1.16-1.03c0-0.75,0.67-0.93,1.28-0.95c0.67-0.02,1.37,0.19,1.37,0.98
		C101.15,113.24,100.51,113.48,99.65,113.47z"/>
	<path class="st1" d="M96.49,111.48c0.66,0.08,1.39,0.21,1.37,1.01c-0.02,0.75-0.67,1-1.37,0.98c-0.65-0.02-1.26-0.22-1.29-0.94
		C95.15,111.74,95.83,111.55,96.49,111.48z"/>
	<path class="st3" d="M35.9,122.21c-0.08,0.08-0.17,0.14-0.24,0.01c-0.02-0.03,0.06-0.11,0.09-0.17
		C35.79,122.1,35.85,122.15,35.9,122.21z"/>
</g>
</svg>
